<svg width="5" height="5" viewBox="0 0 5 5" fill="none" xmlns="http://www.w3.org/2000/svg">
<path d="M4.91491 0.674234L1.8389 4.88392C1.81211 4.92071 1.78027 4.94991 1.74522 4.96983C1.71017 4.98975 1.67259 5 1.63463 5C1.59668 5 1.5591 4.98975 1.52404 4.96983C1.48899 4.94991 1.45716 4.92071 1.43036 4.88392L0.0846099 3.04218C0.0577853 3.00547 0.0365068 2.96189 0.0219894 2.91393C0.00747199 2.86596 3.99718e-10 2.81455 0 2.76263C-3.99718e-10 2.71072 0.00747199 2.65931 0.0219894 2.61134C0.0365068 2.56338 0.0577853 2.5198 0.0846099 2.48308C0.111435 2.44637 0.14328 2.41725 0.178328 2.39739C0.213376 2.37752 0.250941 2.36729 0.288876 2.36729C0.326812 2.36729 0.364376 2.37752 0.399424 2.39739C0.434473 2.41725 0.466318 2.44637 0.493143 2.48308L1.63487 4.0456L4.50686 0.115793C4.56103 0.041652 4.63451 0 4.71112 0C4.78774 0 4.86121 0.041652 4.91539 0.115793C4.96956 0.189934 5 0.290491 5 0.395343C5 0.500194 4.96956 0.600751 4.91539 0.674892L4.91491 0.674234Z" fill="black"/>
</svg>
