<svg width="15" height="14" viewBox="0 0 15 14" fill="none" xmlns="http://www.w3.org/2000/svg">
<path d="M1 4.65217C1 1 4.5 1 7.5 1C10.5 1 14 1 14 4.65217C14 8.82609 10.5 4.13043 10.5 4.13043H4.5C4.5 4.13043 1 8.82609 1 4.65217ZM5 5.69565C5 5.69565 2.5 8.30435 2.5 13H12.5C12.5 8.30435 10 5.69565 10 5.69565H5Z" stroke="white" stroke-linecap="round" stroke-linejoin="round"/>
<path d="M7.5 11.4349C8.60457 11.4349 9.5 10.5005 9.5 9.34791C9.5 8.19532 8.60457 7.26096 7.5 7.26096C6.39543 7.26096 5.5 8.19532 5.5 9.34791C5.5 10.5005 6.39543 11.4349 7.5 11.4349Z" stroke="white" stroke-linecap="round" stroke-linejoin="round"/>
</svg>
